# xmcd
#
# Track frame offsets: 
#        150
#        18524
#        37476
#        54398
#        77079
#        104925
#        124361
#        144818
#        174482
#        200926
#
# Disc length: 3036 seconds
#
# Revision: 0
# Processed by: cddbd v1.5.2PL0 Copyright (c) Steve Scherf et al.
# Submitted via: ExactAudioCopy v0.99pb3
#
DISCID=980bda0a
DTITLE=Mary Gauthier - Mercy Now
DYEAR=2003
DGENRE=Blues
TTITLE0=It Ain't Me
TTITLE1=Drop In A Bucket
TTITLE2=Empty Spaces
TTITLE3=Your Sister Cried
TTITLE4=Prayer Without Words
TTITLE5=Just Say She's A Rhymer
TTITLE6=I Drink
TTITLE7=Wheel Inside The Wheel
TTITLE8=Mercy Now
TTITLE9=Falling Out Of Love
EXTD=
EXTT0=
EXTT1=
EXTT2=
EXTT3=
EXTT4=
EXTT5=
EXTT6=
EXTT7=
EXTT8=
EXTT9=
PLAYORDER=
